<?xml version="1.0" encoding="UTF-8"?>
<!DOCTYPE svg PUBLIC "-//W3C//DTD SVG 1.1//EN" "http://www.w3.org/Graphics/SVG/1.1/DTD/svg11.dtd">
<svg xmlns="http://www.w3.org/2000/svg" version="1.1" width="500px" height="500px" style="shape-rendering:geometricPrecision; text-rendering:geometricPrecision; image-rendering:optimizeQuality; fill-rule:evenodd; clip-rule:evenodd" xmlns:xlink="http://www.w3.org/1999/xlink">
<g><path style="opacity:1" fill="#7ecac7" d="M 265.5,201.5 C 250.709,199.909 236.042,200.575 221.5,203.5C 233.596,197.988 246.263,196.488 259.5,199C 261.852,199.24 263.852,200.073 265.5,201.5 Z"/></g>
<g><path style="opacity:1" fill="#4abfb9" d="M 265.5,201.5 C 270.568,202.59 274.901,204.924 278.5,208.5C 280.452,211.118 282.785,213.452 285.5,215.5C 286.358,218.05 287.358,220.55 288.5,223C 287,223.833 285.833,225 285,226.5C 282.879,223.377 280.379,220.543 277.5,218C 278.602,215.609 277.936,215.109 275.5,216.5C 272.951,215.25 271.618,213.25 271.5,210.5C 269.167,210.5 266.833,210.5 264.5,210.5C 264.804,209.85 265.137,209.183 265.5,208.5C 258.062,206.707 250.728,206.374 243.5,207.5C 241.5,207.5 239.5,207.5 237.5,207.5C 234.555,206.532 231.555,206.366 228.5,207C 228.833,207.333 229.167,207.667 229.5,208C 224.561,210.424 219.395,212.258 214,213.5C 210.707,213.954 208.874,212.62 208.5,209.5C 212.224,206.361 216.557,204.361 221.5,203.5C 236.042,200.575 250.709,199.909 265.5,201.5 Z"/></g>
<g><path style="opacity:1" fill="#7dcbcc" d="M 243.5,207.5 C 250.728,206.374 258.062,206.707 265.5,208.5C 265.137,209.183 264.804,209.85 264.5,210.5C 259.271,208.988 253.938,207.988 248.5,207.5C 246.833,207.5 245.167,207.5 243.5,207.5 Z"/></g>
<g><path style="opacity:0.078" fill="#cbf7f7" d="M 237.5,207.5 C 239.5,207.5 241.5,207.5 243.5,207.5C 245.167,207.5 246.833,207.5 248.5,207.5C 240.162,208.615 231.829,210.282 223.5,212.5C 227.961,210.219 232.628,208.553 237.5,207.5 Z"/></g>
<g><path style="opacity:0.239" fill="#bbefec" d="M 278.5,208.5 C 281.855,209.855 284.189,212.189 285.5,215.5C 282.785,213.452 280.452,211.118 278.5,208.5 Z"/></g>
<g><path style="opacity:0.22" fill="#c2c4ce" d="M 233.5,217.5 C 232.791,216.596 231.791,216.263 230.5,216.5C 231.172,215.733 232.005,215.066 233,214.5C 234.974,214.626 237.141,214.792 239.5,215C 237.372,215.655 235.372,216.489 233.5,217.5 Z"/></g>
<g><path style="opacity:1" fill="#63c2bc" d="M 237.5,207.5 C 232.628,208.553 227.961,210.219 223.5,212.5C 211.385,217.726 200.385,224.726 190.5,233.5C 189.176,230.205 190.509,228.872 194.5,229.5C 194.5,228.167 194.5,226.833 194.5,225.5C 196.905,224.313 199.239,222.813 201.5,221C 203.503,219.181 204.836,217.015 205.5,214.5C 202.167,214.5 200.5,216.167 200.5,219.5C 198.143,219.337 195.81,219.503 193.5,220C 192.529,221.481 191.196,222.315 189.5,222.5C 195.005,217.002 201.338,212.669 208.5,209.5C 208.874,212.62 210.707,213.954 214,213.5C 219.395,212.258 224.561,210.424 229.5,208C 229.167,207.667 228.833,207.333 228.5,207C 231.555,206.366 234.555,206.532 237.5,207.5 Z"/></g>
<g><path style="opacity:0.971" fill="#506c79" d="M 230.5,216.5 C 231.791,216.263 232.791,216.596 233.5,217.5C 225.529,221.14 219.529,226.806 215.5,234.5C 213.677,231.837 212.677,228.837 212.5,225.5C 217.903,221.465 223.903,218.465 230.5,216.5 Z"/></g>
<g><path style="opacity:1" fill="#6ac4bf" d="M 264.5,210.5 C 266.833,210.5 269.167,210.5 271.5,210.5C 271.618,213.25 272.951,215.25 275.5,216.5C 277.936,215.109 278.602,215.609 277.5,218C 280.379,220.543 282.879,223.377 285,226.5C 285.833,225 287,223.833 288.5,223C 287.358,220.55 286.358,218.05 285.5,215.5C 295.467,226.919 299.301,240.252 297,255.5C 296.698,259.245 295.531,262.578 293.5,265.5C 294.57,254.86 294.737,244.193 294,233.5C 292.835,230.499 291.168,227.832 289,225.5C 287.513,227.272 287.18,229.272 288,231.5C 288.654,230.304 289.154,230.304 289.5,231.5C 288.871,237.631 288.205,243.631 287.5,249.5C 287.261,232.01 279.595,219.01 264.5,210.5 Z"/></g>
<g><path style="opacity:1" fill="#54a6c7" d="M 253.5,219.5 C 270.46,222.626 279.46,232.793 280.5,250C 280.696,253.805 280.03,257.305 278.5,260.5C 278.714,253.803 278.381,247.136 277.5,240.5C 275.869,238.003 274.369,235.337 273,232.5C 271.989,231.663 270.822,231.33 269.5,231.5C 269.5,233.5 269.5,235.5 269.5,237.5C 270.833,237.5 272.167,237.5 273.5,237.5C 273.435,240.428 272.768,243.095 271.5,245.5C 270.261,239.342 267.261,234.342 262.5,230.5C 264.5,230.5 266.5,230.5 268.5,230.5C 268.762,229.022 268.429,227.689 267.5,226.5C 263.01,223.588 258.343,221.255 253.5,219.5 Z"/></g>
<g><path style="opacity:0.965" fill="#67afcf" d="M 262.5,230.5 C 259.607,229.426 256.607,228.76 253.5,228.5C 251.611,228.436 249.944,228.936 248.5,230C 252.908,231.436 257.242,233.603 261.5,236.5C 257.224,235.516 252.891,234.683 248.5,234C 246.993,230.543 247.493,227.376 250,224.5C 253.076,225.288 256.242,225.788 259.5,226C 260.386,227.615 261.386,229.115 262.5,230.5 Z"/></g>
<g><path style="opacity:1" fill="#426171" d="M 261.5,299.5 C 262.348,297.907 263.681,296.74 265.5,296C 269.768,295.969 273.768,294.969 277.5,293C 274.362,292.012 271.195,291.178 268,290.5C 264.196,291.205 260.363,291.538 256.5,291.5C 275.459,288.354 292.126,280.354 306.5,267.5C 309.833,266.167 312.167,263.833 313.5,260.5C 318.301,255.528 322.968,250.362 327.5,245C 318.032,236.763 307.698,229.763 296.5,224C 292.2,218.699 287.534,213.699 282.5,209C 304.48,215.823 323.48,227.489 339.5,244C 325.549,265.286 307.216,281.619 284.5,293C 277.131,296.259 269.465,298.425 261.5,299.5 Z"/></g>
<g><path style="opacity:1" fill="#2d9dd0" d="M 253.5,219.5 C 258.343,221.255 263.01,223.588 267.5,226.5C 268.429,227.689 268.762,229.022 268.5,230.5C 266.5,230.5 264.5,230.5 262.5,230.5C 261.386,229.115 260.386,227.615 259.5,226C 256.242,225.788 253.076,225.288 250,224.5C 247.493,227.376 246.993,230.543 248.5,234C 252.891,234.683 257.224,235.516 261.5,236.5C 264.514,239.328 266.514,242.828 267.5,247C 269.066,247.3 270.399,246.8 271.5,245.5C 272.768,243.095 273.435,240.428 273.5,237.5C 272.167,237.5 270.833,237.5 269.5,237.5C 269.5,235.5 269.5,233.5 269.5,231.5C 270.822,231.33 271.989,231.663 273,232.5C 274.369,235.337 275.869,238.003 277.5,240.5C 278.381,247.136 278.714,253.803 278.5,260.5C 276.638,267.23 272.638,272.23 266.5,275.5C 257.717,278.03 248.717,279.03 239.5,278.5C 226.557,273.472 219.557,263.972 218.5,250C 218.907,246.195 219.907,242.695 221.5,239.5C 224.838,239.891 225.838,238.724 224.5,236C 225.651,234.177 226.818,232.344 228,230.5C 232.674,227.644 236.841,224.311 240.5,220.5C 244.734,218.689 249.067,218.356 253.5,219.5 Z"/></g>
<g><path style="opacity:1" fill="#52a2c5" d="M 240.5,220.5 C 236.841,224.311 232.674,227.644 228,230.5C 226.818,232.344 225.651,234.177 224.5,236C 225.838,238.724 224.838,239.891 221.5,239.5C 224.5,229.833 230.833,223.5 240.5,220.5 Z"/></g>
<g><path style="opacity:1" fill="#49bfba" d="M 293.5,265.5 C 292.46,271.038 289.127,274.371 283.5,275.5C 281.801,275.66 280.134,275.494 278.5,275C 280.88,271.742 283.38,268.576 286,265.5C 286.994,260.882 287.494,256.215 287.5,251.5C 287.5,250.833 287.5,250.167 287.5,249.5C 288.205,243.631 288.871,237.631 289.5,231.5C 289.154,230.304 288.654,230.304 288,231.5C 287.18,229.272 287.513,227.272 289,225.5C 291.168,227.832 292.835,230.499 294,233.5C 294.737,244.193 294.57,254.86 293.5,265.5 Z"/></g>
<g><path style="opacity:1" fill="#54c0bb" d="M 190.5,233.5 C 184.805,239.526 179.139,245.526 173.5,251.5C 170.782,253.423 171.116,254.756 174.5,255.5C 182.776,262.645 191.776,268.812 201.5,274C 203.384,275.049 204.718,276.549 205.5,278.5C 205.877,280.258 206.544,281.925 207.5,283.5C 205.955,284.452 204.288,284.785 202.5,284.5C 185.919,277.564 171.586,267.564 159.5,254.5C 167.743,242.254 177.743,231.588 189.5,222.5C 191.196,222.315 192.529,221.481 193.5,220C 195.81,219.503 198.143,219.337 200.5,219.5C 200.5,216.167 202.167,214.5 205.5,214.5C 204.836,217.015 203.503,219.181 201.5,221C 199.239,222.813 196.905,224.313 194.5,225.5C 194.5,226.833 194.5,228.167 194.5,229.5C 190.509,228.872 189.176,230.205 190.5,233.5 Z"/></g>
<g><path style="opacity:0.29" fill="#bcfaf2" d="M 173.5,251.5 C 173.433,252.959 173.766,254.292 174.5,255.5C 171.116,254.756 170.782,253.423 173.5,251.5 Z"/></g>
<g><path style="opacity:0.69" fill="#778c97" d="M 313.5,260.5 C 312.167,263.833 309.833,266.167 306.5,267.5C 308.5,264.833 310.833,262.5 313.5,260.5 Z"/></g>
<g><path style="opacity:1" fill="#3e5f70" d="M 212.5,225.5 C 212.677,228.837 213.677,231.837 215.5,234.5C 206.864,258.765 213.864,276.932 236.5,289C 242.991,291.128 249.658,291.961 256.5,291.5C 260.363,291.538 264.196,291.205 268,290.5C 271.195,291.178 274.362,292.012 277.5,293C 273.768,294.969 269.768,295.969 265.5,296C 263.681,296.74 262.348,297.907 261.5,299.5C 231.752,303.216 212.252,290.883 203,262.5C 200.506,250.132 202.339,238.465 208.5,227.5C 209.622,226.37 210.956,225.703 212.5,225.5 Z"/></g>
<g><path style="opacity:1" fill="#6fc3be" d="M 287.5,251.5 C 287.494,256.215 286.994,260.882 286,265.5C 283.38,268.576 280.88,271.742 278.5,275C 280.134,275.494 281.801,275.66 283.5,275.5C 276.998,280.212 269.998,282.879 262.5,283.5C 276.15,276.812 284.484,266.145 287.5,251.5 Z"/></g>
<g><path style="opacity:0.855" fill="#55a4c4" d="M 266.5,275.5 C 259.578,280.111 251.911,281.611 243.5,280C 241.942,279.79 240.609,279.29 239.5,278.5C 248.717,279.03 257.717,278.03 266.5,275.5 Z"/></g>
<g><path style="opacity:1" fill="#6ebdba" d="M 205.5,278.5 C 208.602,282.104 211.935,285.604 215.5,289C 210.714,288.794 206.381,287.294 202.5,284.5C 204.288,284.785 205.955,284.452 207.5,283.5C 206.544,281.925 205.877,280.258 205.5,278.5 Z"/></g>
</svg>
